<?xml version="1.0" standalone="no"?>
<!DOCTYPE svg PUBLIC "-//W3C//DTD SVG 20010904//EN"
 "http://www.w3.org/TR/2001/REC-SVG-20010904/DTD/svg10.dtd">
<svg version="1.0" xmlns="http://www.w3.org/2000/svg"
 width="1200.000000pt" height="1200.000000pt" viewBox="0 0 1200.000000 1200.000000"
 preserveAspectRatio="xMidYMid meet">
<metadata>
Created by potrace 1.14, written by Peter Selinger 2001-2017
</metadata>
<g transform="translate(0.000000,1200.000000) scale(0.100000,-0.100000)"
fill="#000000" stroke="none">
<path d="M0 6000 l0 -6000 6000 0 6000 0 0 6000 0 6000 -6000 0 -6000 0 0
-6000z m3085 860 c492 -139 1022 -439 1430 -809 199 -181 392 -416 474 -578
l21 -43 -31 -62 c-132 -262 -348 -446 -614 -523 -220 -63 -391 -38 -681 100
-482 229 -826 632 -1004 1175 -62 187 -84 313 -85 475 0 131 2 144 25 189 14
27 37 58 52 69 75 56 230 58 413 7z m6193 15 c85 -35 122 -116 122 -271 0
-250 -107 -608 -262 -881 -131 -229 -352 -477 -546 -613 -207 -145 -456 -258
-642 -291 -185 -32 -444 39 -627 175 -127 93 -257 253 -317 388 l-25 56 53 90
c86 145 169 246 345 423 239 239 478 421 766 584 283 161 670 317 881 355 71
13 202 5 252 -15z"/>
</g>
</svg>
